<svg width="512" height="512" viewBox="0 0 512 512" fill="none" xmlns="http://www.w3.org/2000/svg">
  <title>Agent Broom frosted glass logo</title>
  <defs>
    <linearGradient id="glass" x1="34" y1="18" x2="480" y2="498" gradientUnits="userSpaceOnUse">
      <stop stop-color="#FFF3E3" stop-opacity="0.96"/>
      <stop offset="0.45" stop-color="#FFD49A" stop-opacity="0.76"/>
      <stop offset="1" stop-color="#F59B38" stop-opacity="0.56"/>
    </linearGradient>
    <linearGradient id="edge" x1="34" y1="22" x2="478" y2="492" gradientUnits="userSpaceOnUse">
      <stop stop-color="#FFFDF8" stop-opacity="0.92"/>
      <stop offset="1" stop-color="#EA8730" stop-opacity="0.48"/>
    </linearGradient>
    <filter id="soft-shadow" x="-10" y="-10" width="532" height="532" filterUnits="userSpaceOnUse" color-interpolation-filters="sRGB">
      <feDropShadow dx="0" dy="22" stdDeviation="26" flood-color="#6F3E17" flood-opacity="0.18"/>
    </filter>
    <filter id="frost" x="0" y="0" width="512" height="512" filterUnits="userSpaceOnUse" color-interpolation-filters="sRGB">
      <feTurbulence type="fractalNoise" baseFrequency="0.9" numOctaves="3" seed="27" result="noise"/>
      <feColorMatrix in="noise" type="matrix" values="0 0 0 0 1 0 0 0 0 0.78 0 0 0 0 0.48 0 0 0 0.14 0" result="mist"/>
      <feBlend in="SourceGraphic" in2="mist" mode="screen"/>
    </filter>
    <mask id="broom-cutout">
      <rect width="512" height="512" fill="black"/>
      <rect x="14" y="14" width="484" height="484" rx="112" fill="white"/>
      <g transform="rotate(-36 256 256)" fill="black">
        <rect x="245" y="88" width="26" height="270" rx="13"/>
        <rect x="226" y="330" width="64" height="38" rx="19"/>
        <path d="M190 356C190 344.954 198.954 336 210 336H306C317.046 336 326 344.954 326 356V389C326 397.837 318.837 405 310 405H206C197.163 405 190 397.837 190 389V356Z"/>
        <path d="M181 395H212L204 447C202.447 457.096 189.049 459.41 184.227 450.405L169.344 422.611C162.868 410.52 171.286 395.893 181 395Z"/>
        <path d="M215 395H243L237 454C235.935 464.474 222.259 467.617 216.758 458.641L203.587 437.153C191.954 418.174 202.485 395 215 395Z"/>
        <path d="M247 395H274L271 455C270.488 465.249 257.187 468.868 251.557 460.285L237.736 439.216C224.777 419.461 234.134 395 247 395Z"/>
        <path d="M278 395H306C318.515 395 329.046 418.174 317.413 437.153L304.242 458.641C298.741 467.617 285.065 464.474 284 454L278 395Z"/>
        <path d="M309 395H335C344.714 395.893 353.132 410.52 346.656 422.611L331.773 450.405C326.951 459.41 313.553 457.096 312 447L309 395Z"/>
      </g>
    </mask>
  </defs>

  <rect x="14" y="14" width="484" height="484" rx="112" fill="url(#glass)" filter="url(#soft-shadow)" mask="url(#broom-cutout)"/>
  <rect x="23" y="23" width="466" height="466" rx="103" stroke="url(#edge)" stroke-width="4" filter="url(#frost)" mask="url(#broom-cutout)"/>
</svg>
