<svg width="512" height="512" viewBox="0 0 512 512" fill="none" xmlns="http://www.w3.org/2000/svg">
  <title>Agent Broom frosted glass logo</title>
  <defs>
    <linearGradient id="glass" x1="34" y1="18" x2="480" y2="498" gradientUnits="userSpaceOnUse">
      <stop stop-color="#FFF3E3" stop-opacity="0.96"/>
      <stop offset="0.45" stop-color="#FFD49A" stop-opacity="0.76"/>
      <stop offset="1" stop-color="#F59B38" stop-opacity="0.56"/>
    </linearGradient>
    <linearGradient id="edge" x1="34" y1="22" x2="478" y2="492" gradientUnits="userSpaceOnUse">
      <stop stop-color="#FFFDF8" stop-opacity="0.92"/>
      <stop offset="1" stop-color="#EA8730" stop-opacity="0.48"/>
    </linearGradient>
    <filter id="soft-shadow" x="-10" y="-10" width="532" height="532" filterUnits="userSpaceOnUse" color-interpolation-filters="sRGB">
      <feDropShadow dx="0" dy="22" stdDeviation="26" flood-color="#6F3E17" flood-opacity="0.18"/>
    </filter>
    <filter id="frost" x="0" y="0" width="512" height="512" filterUnits="userSpaceOnUse" color-interpolation-filters="sRGB">
      <feTurbulence type="fractalNoise" baseFrequency="0.9" numOctaves="3" seed="27" result="noise"/>
      <feColorMatrix in="noise" type="matrix" values="0 0 0 0 1 0 0 0 0 0.78 0 0 0 0 0.48 0 0 0 0.14 0" result="mist"/>
      <feBlend in="SourceGraphic" in2="mist" mode="screen"/>
    </filter>
    <mask id="broom-cutout">
      <rect width="512" height="512" fill="black"/>
      <rect x="14" y="14" width="484" height="484" rx="112" fill="white"/>
      <g transform="rotate(-36 256 256)" fill="black">
        <rect x="245" y="88" width="26" height="268" rx="13"/>
        <rect x="224" y="336" width="68" height="28" rx="14"/>
        <path d="M184 361C184 349.954 192.954 341 204 341H312C323.046 341 332 349.954 332 361V395C332 408.255 321.255 419 308 419H208C194.745 419 184 408.255 184 395V361Z"/>
        <path d="M192 397H324L306 440C302.288 448.882 293.603 454.667 283.977 454.667H232.023C222.397 454.667 213.712 448.882 210 440L192 397Z"/>
        <path d="M217 401L228 453"/>
        <path d="M248 399L251 456"/>
        <path d="M279 399L271 456"/>
        <path d="M306 401L292 451"/>
      </g>
    </mask>
  </defs>

  <rect x="14" y="14" width="484" height="484" rx="112" fill="url(#glass)" filter="url(#soft-shadow)" mask="url(#broom-cutout)"/>
  <rect x="23" y="23" width="466" height="466" rx="103" stroke="url(#edge)" stroke-width="4" filter="url(#frost)" mask="url(#broom-cutout)"/>
  <path d="M88 86C127 60 199 49 265 59" stroke="#FFFDF8" stroke-opacity="0.72" stroke-width="11" stroke-linecap="round"/>
  <path d="M82 406C133 459 229 477 333 452" stroke="#B35C1D" stroke-opacity="0.25" stroke-width="9" stroke-linecap="round"/>
</svg>
